<svg id="Layer_1" data-name="Layer 1" xmlns="http://www.w3.org/2000/svg" viewBox="0 0 235 85"><defs><style>.cls-1{fill:#f08638;}.cls-1,.cls-2{stroke:#f08538;stroke-miterlimit:10;stroke-width:0.27px;}.cls-2,.cls-3{fill:#f08538;}.cls-3{font-size:45.54px;font-family:Klepon-Ijo, KleponIjo;}</style></defs><ellipse class="cls-1" cx="58.32" cy="19.19" rx="18.37" ry="13.34" transform="translate(8.91 55.64) rotate(-54.63)"/><path class="cls-1" d="M14.38,81.09h0A6.79,6.79,0,0,1,13,71.34l37.25-47,5.91,4.19L24,79.19A6.79,6.79,0,0,1,14.38,81.09Z"/><path class="cls-2" d="M7.16,27.31c5.87,8.27,15.5,11.52,21.5,7.26s6.12-14.43.25-22.7C25.41,6.94,20.58,3.8,16,3A.68.68,0,0,0,15.3,4l10,14.06A2.08,2.08,0,0,1,24.8,21h0a2.06,2.06,0,0,1-2.89-.49L11.55,5.9a2.07,2.07,0,0,0-2.77-.57c-.2.12-.4.25-.59.39a7.77,7.77,0,0,0-.78.61,2.08,2.08,0,0,0-.32,2.76L17.43,23.66a2.06,2.06,0,0,1-.49,2.89h0a2.08,2.08,0,0,1-2.89-.49L4.19,12.16a.67.67,0,0,0-1.22.3C2.34,17,3.73,22.49,7.16,27.31Z"/><path class="cls-2" d="M62,81.49h0a6.8,6.8,0,0,0,1.39-9.76l-37.24-47-5.91,4.19L52.3,79.58A6.8,6.8,0,0,0,62,81.49Z"/><text class="cls-3" transform="translate(79.06 35.82)">My Recipe <tspan x="0" y="50.28">Notebook</tspan></text></svg>